{
  "asset": {
    "generator": "Khronos glTF Blender I/O v1.6.16",
    "version": "2.0"
  },
  "extensionsUsed": [
    "KHR_texture_transform"
  ],
  "extensionsRequired": [
    "KHR_texture_transform"
  ],
  "scene": 0,
  "scenes": [
    {
      "name": "Scene",
      "nodes": [
        0
      ]
    }
  ],
  "nodes": [
    {
      "mesh": 0,
      "name": "sphere_gltf"
    }
  ],
  "materials": [
    {
      "doubleSided": true,
      "name": "rock_pitted_mossy",
      "normalTexture": {
        "extensions": {
          "KHR_texture_transform": {
            "offset": [
              1,
              -1
            ]
          }
        },
        "index": 0
      },
      "pbrMetallicRoughness": {
        "baseColorTexture": {
          "extensions": {
            "KHR_texture_transform": {
              "offset": [
                1,
                -1
              ]
            }
          },
          "index": 1
        },
        "metallicFactor": 0,
        "metallicRoughnessTexture": {
          "extensions": {
            "KHR_texture_transform": {
              "offset": [
                1,
                -1
              ]
            }
          },
          "index": 2
        }
      }
    }
  ],
  "meshes": [
    {
      "name": "Sphere.001",
      "primitives": [
        {
          "attributes": {
            "POSITION": 0,
            "NORMAL": 1,
            "TEXCOORD_0": 2
          },
          "indices": 3,
          "material": 0
        }
      ]
    }
  ],
  "textures": [
    {
      "sampler": 0,
      "source": 0
    },
    {
      "sampler": 0,
      "source": 1
    },
    {
      "sampler": 0,
      "source": 2
    }
  ],
  "images": [
    {
      "mimeType": "image/jpeg",
      "name": "rock_pitted_mossy_nor_gl_8k",
      "uri": "textures/rock_pitted_mossy_nor_gl_1k.jpg"
    },
    {
      "mimeType": "image/jpeg",
      "name": "rock_pitted_mossy_diff_8k",
      "uri": "textures/rock_pitted_mossy_diff_1k.jpg"
    },
    {
      "mimeType": "image/jpeg",
      "name": "rock_pitted_mossy_arm_8k",
      "uri": "textures/rock_pitted_mossy_arm_1k.jpg"
    }
  ],
  "accessors": [
    {
      "bufferView": 0,
      "componentType": 5126,
      "count": 53897,
      "max": [
        0.505111813545227,
        0.5147542953491211,
        0.5173919796943665
      ],
      "min": [
        -0.5051115155220032,
        -0.5175072550773621,
        -0.5173880457878113
      ],
      "type": "VEC3"
    },
    {
      "bufferView": 1,
      "componentType": 5126,
      "count": 53897,
      "type": "VEC3"
    },
    {
      "bufferView": 2,
      "componentType": 5126,
      "count": 53897,
      "type": "VEC2"
    },
    {
      "bufferView": 3,
      "componentType": 5123,
      "count": 322170,
      "type": "SCALAR"
    }
  ],
  "bufferViews": [
    {
      "buffer": 0,
      "byteLength": 646764,
      "byteOffset": 0
    },
    {
      "buffer": 0,
      "byteLength": 646764,
      "byteOffset": 646764
    },
    {
      "buffer": 0,
      "byteLength": 431176,
      "byteOffset": 1293528
    },
    {
      "buffer": 0,
      "byteLength": 644340,
      "byteOffset": 1724704
    }
  ],
  "samplers": [
    {
      "magFilter": 9729,
      "minFilter": 9987
    }
  ],
  "buffers": [
    {
      "byteLength": 2369044,
      "uri": "rock_pitted_mossy.bin"
    }
  ]
}